<?xml version="1.0" encoding="iso-8859-1"?>
<!-- Generator: Adobe Illustrator 19.0.0, SVG Export Plug-In . SVG Version: 6.00 Build 0)  -->
<svg version="1.1" id="Layer_1" xmlns="http://www.w3.org/2000/svg" xmlns:xlink="http://www.w3.org/1999/xlink" x="0px" y="0px"
	 viewBox="0 0 512 512" style="enable-background:new 0 0 512 512;" xml:space="preserve">
<g>
	<g>
		<path d="M437.019,74.981C388.668,26.629,324.381,0,256,0S123.332,26.629,74.981,74.981C26.629,123.332,0,187.619,0,256
			s26.629,132.668,74.981,181.019C123.332,485.371,187.619,512,256,512s132.668-26.629,181.019-74.981
			C485.371,388.668,512,324.381,512,256S485.371,123.332,437.019,74.981z M256,476.279c-121.463,0-220.279-98.816-220.279-220.279
			S134.537,35.721,256,35.721S476.279,134.537,476.279,256S377.463,476.279,256,476.279z"/>
	</g>
</g>
<g>
	<g>
		<path d="M301.217,75.578c-10.346-12.077-24.774-19.402-40.628-20.629c-15.862-1.225-31.239,3.796-43.316,14.141
			c-12.077,10.345-19.404,24.774-20.629,40.628c-1.225,15.855,3.797,31.238,14.141,43.316
			c10.345,12.077,24.774,19.404,40.628,20.629c1.567,0.121,3.129,0.181,4.684,0.181c14.179,0,27.749-5,38.632-14.322
			c12.078-10.345,19.404-24.774,20.629-40.628C316.583,103.039,311.562,87.657,301.217,75.578z M279.742,116.142
			c-0.491,6.342-3.421,12.114-8.253,16.251c-4.832,4.138-10.998,6.133-17.326,5.657c-6.342-0.491-12.114-3.421-16.251-8.253
			c-4.138-4.831-6.146-10.984-5.657-17.326c0.491-6.342,3.421-12.114,8.253-16.251c4.353-3.729,9.78-5.73,15.453-5.73
			c0.622,0,1.248,0.025,1.873,0.073c6.342,0.491,12.114,3.421,16.251,8.253C278.224,103.647,280.233,109.8,279.742,116.142z"/>
	</g>
</g>
<g>
	<g>
		<path d="M301.217,217.271c-10.346-12.077-24.774-19.402-40.628-20.629c-15.862-1.222-31.239,3.797-43.316,14.141
			c-12.077,10.345-19.404,24.774-20.629,40.628c-1.225,15.855,3.797,31.238,14.141,43.316
			c10.345,12.078,24.774,19.404,40.628,20.629c1.567,0.121,3.129,0.181,4.684,0.181c14.179,0,27.749-5,38.632-14.322
			c12.078-10.345,19.404-24.774,20.629-40.628C316.583,244.732,311.562,229.35,301.217,217.271z M279.742,257.835
			c-0.491,6.342-3.421,12.114-8.253,16.251c-4.832,4.138-10.998,6.136-17.326,5.657c-6.342-0.491-12.114-3.421-16.251-8.253
			c-4.138-4.831-6.146-10.984-5.657-17.326c0.491-6.342,3.421-12.114,8.253-16.251c4.353-3.729,9.78-5.73,15.453-5.73
			c0.622,0,1.248,0.025,1.873,0.073c6.342,0.491,12.114,3.421,16.251,8.253C278.224,245.34,280.233,251.493,279.742,257.835z"/>
	</g>
</g>
<g>
	<g>
		<path d="M191.813,174.223c-6.03-32.269-37.188-53.62-69.453-47.591c-15.633,2.92-29.191,11.752-38.18,24.87
			c-8.989,13.119-12.331,28.952-9.41,44.582c5.339,28.591,30.404,48.61,58.497,48.61c3.613,0,7.278-0.331,10.954-1.018
			C176.49,237.65,197.839,206.492,191.813,174.223z M152.933,198.614c-3.596,5.247-9.018,8.78-15.271,9.947
			c-6.255,1.167-12.584-0.17-17.832-3.765c-5.247-3.596-8.78-9.018-9.947-15.272c-1.169-6.252,0.168-12.584,3.763-17.832
			c3.596-5.247,9.018-8.78,15.271-9.947c1.472-0.274,2.936-0.407,4.382-0.407c11.237,0,21.263,8.009,23.4,19.443
			C157.865,187.034,156.529,193.367,152.933,198.614z"/>
	</g>
</g>
<g>
	<g>
		<path d="M153.084,270.7c-15.002-5.289-31.157-4.417-45.5,2.448c-14.344,6.867-25.155,18.907-30.441,33.905
			c-10.915,30.959,5.393,65.026,36.352,75.94c6.525,2.3,13.185,3.391,19.741,3.391c24.547,0,47.587-15.309,56.201-39.743
			C200.353,315.681,184.044,281.614,153.084,270.7z M155.749,334.763c-2.115,5.999-6.439,10.815-12.177,13.562
			c-5.737,2.746-12.202,3.092-18.2,0.979c-12.383-4.366-18.906-17.991-14.541-30.376c2.115-5.999,6.439-10.815,12.177-13.562
			c3.259-1.561,6.754-2.347,10.264-2.347c2.668,0,5.345,0.455,7.936,1.367C153.592,308.755,160.114,322.38,155.749,334.763z"/>
	</g>
</g>
<g>
	<g>
		<path d="M301.217,358.964c-10.346-12.077-24.774-19.402-40.628-20.629c-15.862-1.217-31.239,3.796-43.316,14.141
			c-12.077,10.346-19.404,24.774-20.629,40.628c-1.225,15.855,3.797,31.238,14.141,43.316
			c10.345,12.078,24.774,19.404,40.628,20.629c1.567,0.121,3.129,0.181,4.684,0.181c14.179,0,27.749-5,38.632-14.322
			c12.078-10.346,19.404-24.774,20.629-40.628C316.583,386.425,311.562,371.043,301.217,358.964z M279.742,399.528
			c-0.491,6.342-3.421,12.114-8.253,16.252c-4.832,4.138-10.998,6.139-17.326,5.657c-6.342-0.491-12.114-3.421-16.251-8.253
			c-4.138-4.831-6.146-10.984-5.657-17.326c0.491-6.342,3.421-12.114,8.253-16.252c4.353-3.729,9.78-5.728,15.453-5.728
			c0.622,0,1.248,0.025,1.873,0.073c6.342,0.491,12.114,3.421,16.251,8.253C278.224,387.033,280.233,393.186,279.742,399.528z"/>
	</g>
</g>
<g>
	<g>
		<path d="M437.231,315.916c-6.027-32.269-37.185-53.627-69.452-47.592c-32.269,6.026-53.618,37.184-47.592,69.453
			c5.341,28.591,30.408,48.609,58.499,48.609c3.613,0,7.278-0.331,10.954-1.018c15.633-2.92,29.191-11.752,38.18-24.87
			C436.81,347.38,440.151,331.547,437.231,315.916z M398.354,340.307c-3.596,5.247-9.018,8.78-15.271,9.948
			c-12.914,2.416-25.37-6.13-27.781-19.036c-1.167-6.252,0.169-12.586,3.765-17.833c3.596-5.247,9.018-8.78,15.271-9.948
			c1.475-0.275,2.953-0.412,4.422-0.412c4.757,0,9.402,1.429,13.411,4.177c5.247,3.596,8.78,9.018,9.947,15.272
			C403.286,328.728,401.949,335.06,398.354,340.307z"/>
	</g>
</g>
<g>
	<g>
		<path d="M398.505,129.006c-30.961-10.914-65.028,5.39-75.942,36.352c-10.916,30.961,5.393,65.028,36.352,75.942
			c6.477,2.284,13.17,3.418,19.838,3.418c8.777,0,17.512-1.965,25.662-5.867c14.344-6.867,25.155-18.907,30.441-33.905
			C445.772,173.987,429.464,139.92,398.505,129.006z M401.169,193.07c-2.115,5.999-6.439,10.815-12.177,13.562
			c-5.738,2.746-12.202,3.092-18.2,0.979c-12.383-4.366-18.906-17.991-14.541-30.375c2.115-5.999,6.439-10.815,12.177-13.562
			c3.259-1.561,6.754-2.347,10.264-2.347c2.668,0,5.345,0.455,7.936,1.367C399.011,167.061,405.534,180.686,401.169,193.07z"/>
	</g>
</g>
<g>
</g>
<g>
</g>
<g>
</g>
<g>
</g>
<g>
</g>
<g>
</g>
<g>
</g>
<g>
</g>
<g>
</g>
<g>
</g>
<g>
</g>
<g>
</g>
<g>
</g>
<g>
</g>
<g>
</g>
</svg>
