<svg width="264" height="280" viewBox="0 0 264 280" fill="none" xmlns="http://www.w3.org/2000/svg">
<mask id="mask0" mask-type="alpha" maskUnits="userSpaceOnUse" x="12" y="40" width="240" height="240">
<path d="M132 280C198.274 280 252 226.274 252 160C252 93.7258 198.274 40 132 40C65.7258 40 12 93.7258 12 160C12 226.274 65.7258 280 132 280Z" fill="white"/>
</mask>
<g mask="url(#mask0)">
<path d="M132 280C198.274 280 252 226.274 252 160C252 93.7258 198.274 40 132 40C65.7258 40 12 93.7258 12 160C12 226.274 65.7258 280 132 280Z" fill="#E6E6E6"/>
<path d="M252 40H12V280H252V40Z" fill="#65C9FF"/>
</g>
<mask id="mask1" mask-type="alpha" maskUnits="userSpaceOnUse" x="0" y="0" width="264" height="280">
<path d="M12 160C12 226.274 65.7258 280 132 280C198.274 280 252 226.274 252 160H264V0H0V160H12Z" fill="white"/>
</mask>
<g mask="url(#mask1)">
<mask id="mask2" mask-type="alpha" maskUnits="userSpaceOnUse" x="32" y="36" width="200" height="244">
<path d="M156 180.611V199H160C199.765 199 232 231.235 232 271V280H32V271C32 231.235 64.2355 199 104 199H108V180.611C90.7626 172.422 78.3722 155.687 76.3051 135.881C70.4803 135.058 66 130.052 66 124V110C66 104.054 70.3246 99.1181 76 98.1659V92C76 61.0721 101.072 36 132 36C162.928 36 188 61.0721 188 92V98.1659C193.675 99.1181 198 104.054 198 110V124C198 130.052 193.52 135.058 187.695 135.881C185.628 155.687 173.237 172.422 156 180.611Z" fill="white"/>
</mask>
<g mask="url(#mask2)">
<path d="M156 180.611V199H160C199.765 199 232 231.235 232 271V280H32V271C32 231.235 64.2355 199 104 199H108V180.611C90.7626 172.422 78.3722 155.687 76.3051 135.881C70.4803 135.058 66 130.052 66 124V110C66 104.054 70.3246 99.1181 76 98.1659V92C76 61.0721 101.072 36 132 36C162.928 36 188 61.0721 188 92V98.1659C193.675 99.1181 198 104.054 198 110V124C198 130.052 193.52 135.058 187.695 135.881C185.628 155.687 173.237 172.422 156 180.611Z" fill="#D0C6AC"/>
<path d="M296 36H32V316H296V36Z" fill="#EDB98A"/>
<path fill-rule="evenodd" clip-rule="evenodd" d="M188 115V138C188 168.928 162.928 194 132 194C101.072 194 76 168.928 76 138V115V130C76 160.928 101.072 186 132 186C162.928 186 188 160.928 188 130V115Z" fill="black" fill-opacity="0.1"/>
</g>
<mask id="mask3" mask-type="alpha" maskUnits="userSpaceOnUse" x="32" y="199" width="200" height="81">
<path fill-rule="evenodd" clip-rule="evenodd" d="M165.96 199.295C202.936 202.325 232 233.294 232 271.052V280H32V271.052C32 232.953 61.592 201.765 99.0454 199.22C99.0153 199.593 99 199.969 99 200.348C99 212.211 113.998 221.828 132.5 221.828C151.002 221.828 166 212.211 166 200.348C166 199.995 165.987 199.644 165.96 199.295Z" fill="white"/>
</mask>
<g mask="url(#mask3)">
<path fill-rule="evenodd" clip-rule="evenodd" d="M165.96 199.295C202.936 202.325 232 233.294 232 271.052V280H32V271.052C32 232.953 61.592 201.765 99.0454 199.22C99.0153 199.593 99 199.969 99 200.348C99 212.211 113.998 221.828 132.5 221.828C151.002 221.828 166 212.211 166 200.348C166 199.995 165.987 199.644 165.96 199.295Z" fill="#E6E6E6"/>
<path d="M264 170H0V280H264V170Z" fill="#262E33"/>
<g opacity="0.6">
<g opacity="0.6">
<path opacity="0.6" d="M132.5 228.761C154.39 228.761 172.135 216.712 172.135 201.848C172.135 186.984 154.39 174.934 132.5 174.934C110.61 174.934 92.8649 186.984 92.8649 201.848C92.8649 216.712 110.61 228.761 132.5 228.761Z" fill="black" fill-opacity="0.16"/>
</g>
</g>
</g>
<path fill-rule="evenodd" clip-rule="evenodd" d="M100.785 199.122C62.5123 200.804 32 232.365 32 271.052H32V280H101.362C97.9607 267.92 96 253.709 96 238.5C96 224.173 97.74 210.731 100.785 199.122ZM163.638 280H232V271.052C232 232.707 202.025 201.363 164.229 199.174C167.265 210.771 169 224.194 169 238.5C169 253.709 167.039 267.92 163.638 280Z" fill="#3A4C5A"/>
<path fill-rule="evenodd" clip-rule="evenodd" d="M181 256L190.556 248.833C191.999 247.751 193.988 247.768 195.412 248.876L202 254L181 256Z" fill="#E6E6E6"/>
<path fill-rule="evenodd" clip-rule="evenodd" d="M101 198C97 217.333 98.6667 244.667 106 280H90L76 244L82 235L76 229L95 199C97.0277 198.369 99.0277 198.036 101 198Z" fill="#2F4351"/>
<path fill-rule="evenodd" clip-rule="evenodd" d="M163 198C167 217.333 165.333 244.667 158 280H174L188 244L182 235L188 229L169 199C166.972 198.369 164.972 198.036 163 198Z" fill="#2F4351"/>
<mask id="mask4" mask-type="alpha" maskUnits="userSpaceOnUse" x="113" y="147" width="38" height="19">
<path fill-rule="evenodd" clip-rule="evenodd" d="M113.118 149.128C114.176 158.62 122.226 166 132 166C141.804 166 149.874 158.574 150.892 149.04C150.974 148.273 150.117 147 149.043 147C134.149 147 122.738 147 115.087 147C114.007 147 113.012 148.178 113.118 149.128Z" fill="white"/>
</mask>
<g mask="url(#mask4)">
<path fill-rule="evenodd" clip-rule="evenodd" d="M113.118 149.128C114.176 158.62 122.226 166 132 166C141.804 166 149.874 158.574 150.892 149.04C150.974 148.273 150.117 147 149.043 147C134.149 147 122.738 147 115.087 147C114.007 147 113.012 148.178 113.118 149.128Z" fill="black" fill-opacity="0.7"/>
<path d="M143 136H122C119.239 136 117 138.239 117 141V147C117 149.761 119.239 152 122 152H143C145.761 152 148 149.761 148 147V141C148 138.239 145.761 136 143 136Z" fill="white"/>
<path d="M127 180C133.075 180 138 175.075 138 169C138 162.925 133.075 158 127 158C120.925 158 116 162.925 116 169C116 175.075 120.925 180 127 180Z" fill="#FF4F6D"/>
<path d="M137 180C143.075 180 148 175.075 148 169C148 162.925 143.075 158 137 158C130.925 158 126 162.925 126 169C126 175.075 130.925 180 137 180Z" fill="#FF4F6D"/>
</g>
<path fill-rule="evenodd" clip-rule="evenodd" d="M120 130C120 134.418 125.373 138 132 138C138.627 138 144 134.418 144 130" fill="black" fill-opacity="0.16"/>
<mask id="mask5" mask-type="alpha" maskUnits="userSpaceOnUse" x="92" y="103" width="28" height="16">
<path fill-rule="evenodd" clip-rule="evenodd" d="M106 117.048C115.61 117.048 120 121.499 120 114.562C120 107.624 113.732 103 106 103C98.268 103 92 107.624 92 114.562C92 121.499 96.39 117.048 106 117.048Z" fill="white"/>
</mask>
<g mask="url(#mask5)">
<path fill-rule="evenodd" clip-rule="evenodd" d="M106 117.048C115.61 117.048 120 121.499 120 114.562C120 107.624 113.732 103 106 103C98.268 103 92 107.624 92 114.562C92 121.499 96.39 117.048 106 117.048Z" fill="white"/>
<path d="M106 119C109.314 119 112 116.314 112 113C112 109.686 109.314 107 106 107C102.686 107 100 109.686 100 113C100 116.314 102.686 119 106 119Z" fill="#091889" fill-opacity="0.7"/>
</g>
<mask id="mask6" mask-type="alpha" maskUnits="userSpaceOnUse" x="144" y="103" width="28" height="16">
<path fill-rule="evenodd" clip-rule="evenodd" d="M158 117.048C167.61 117.048 172 121.499 172 114.562C172 107.624 165.732 103 158 103C150.268 103 144 107.624 144 114.562C144 121.499 148.39 117.048 158 117.048Z" fill="white"/>
</mask>
<g mask="url(#mask6)">
<path fill-rule="evenodd" clip-rule="evenodd" d="M158 117.048C167.61 117.048 172 121.499 172 114.562C172 107.624 165.732 103 158 103C150.268 103 144 107.624 144 114.562C144 121.499 148.39 117.048 158 117.048Z" fill="white"/>
<path d="M158 119C161.314 119 164 116.314 164 113C164 109.686 161.314 107 158 107C154.686 107 152 109.686 152 113C152 116.314 154.686 119 158 119Z" fill="#091889" fill-opacity="0.7"/>
</g>
<path fill-rule="evenodd" clip-rule="evenodd" d="M102.547 90.1484C96.7404 90.4166 87.3522 94.6363 87.5941 100.492C87.6021 100.684 87.8837 100.768 88.0212 100.621C90.7761 97.6613 110.337 94.6709 117.226 96.2556C117.857 96.4008 118.336 95.7788 117.936 95.3294C114.514 91.4812 107.75 89.903 102.547 90.1484Z" fill="black" fill-opacity="0.6"/>
<path fill-rule="evenodd" clip-rule="evenodd" d="M162.453 90.1484C168.26 90.4166 177.648 94.6363 177.406 100.492C177.398 100.684 177.116 100.768 176.979 100.621C174.224 97.6613 154.663 94.6709 147.774 96.2556C147.143 96.4008 146.664 95.7788 147.064 95.3294C150.486 91.4812 157.25 89.903 162.453 90.1484Z" fill="black" fill-opacity="0.6"/>
<mask id="mask7" mask-type="alpha" maskUnits="userSpaceOnUse" x="0" y="0" width="264" height="280">
<path d="M264 0H0V280H264V0Z" fill="white"/>
</mask>
<g mask="url(#mask7)">
<mask id="mask8" mask-type="alpha" maskUnits="userSpaceOnUse" x="75" y="98" width="114" height="89">
<path fill-rule="evenodd" clip-rule="evenodd" d="M149.428 170.169C146.915 172.463 144.237 173.494 140.853 172.773C140.271 172.649 137.896 168.235 132 168.235C126.103 168.235 123.729 172.649 123.147 172.773C119.762 173.494 117.085 172.463 114.571 170.169C109.846 165.856 105.917 159.908 108.278 153.419C109.508 150.037 111.51 146.324 115.151 145.246C119.038 144.096 124.497 145.244 128.415 144.458C129.684 144.204 131.071 143.751 132 143C132.929 143.751 134.316 144.204 135.585 144.458C139.503 145.244 144.961 144.096 148.849 145.246C152.49 146.324 154.491 150.037 155.722 153.419C158.083 159.908 154.154 165.856 149.428 170.169ZM188.081 98C184.671 106.4 185.988 116.858 185.357 125.676C184.844 132.843 183.337 143.586 176.973 148.215C173.718 150.582 167.794 154.56 163.542 153.45C160.615 152.686 160.302 144.29 156.455 141.147C152.092 137.582 146.643 136.016 141.149 136.258C138.779 136.362 133.984 136.337 132 138.16C130.016 136.337 125.222 136.362 122.851 136.258C117.357 136.016 111.908 137.582 107.545 141.147C103.698 144.29 103.386 152.686 100.458 153.45C96.2058 154.56 90.2818 150.582 87.027 148.215C80.6624 143.586 79.1562 132.843 78.6429 125.676C78.0121 116.858 79.3292 106.4 75.9188 98C74.2598 98 75.354 114.129 75.354 114.129V134.485C75.3857 149.773 84.9351 172.655 106.108 181.393C111.286 183.53 123.015 187 132 187C140.985 187 152.714 183.86 157.892 181.723C179.065 172.986 188.614 149.773 188.646 134.485V114.129C188.646 114.129 189.74 98 188.081 98Z" fill="white"/>
</mask>
<g mask="url(#mask8)">
<path fill-rule="evenodd" clip-rule="evenodd" d="M149.428 170.169C146.915 172.463 144.237 173.494 140.853 172.773C140.271 172.649 137.896 168.235 132 168.235C126.103 168.235 123.729 172.649 123.147 172.773C119.762 173.494 117.085 172.463 114.571 170.169C109.846 165.856 105.917 159.908 108.278 153.419C109.508 150.037 111.51 146.324 115.151 145.246C119.038 144.096 124.497 145.244 128.415 144.458C129.684 144.204 131.071 143.751 132 143C132.929 143.751 134.316 144.204 135.585 144.458C139.503 145.244 144.961 144.096 148.849 145.246C152.49 146.324 154.491 150.037 155.722 153.419C158.083 159.908 154.154 165.856 149.428 170.169ZM188.081 98C184.671 106.4 185.988 116.858 185.357 125.676C184.844 132.843 183.337 143.586 176.973 148.215C173.718 150.582 167.794 154.56 163.542 153.45C160.615 152.686 160.302 144.29 156.455 141.147C152.092 137.582 146.643 136.016 141.149 136.258C138.779 136.362 133.984 136.337 132 138.16C130.016 136.337 125.222 136.362 122.851 136.258C117.357 136.016 111.908 137.582 107.545 141.147C103.698 144.29 103.386 152.686 100.458 153.45C96.2058 154.56 90.2818 150.582 87.027 148.215C80.6624 143.586 79.1562 132.843 78.6429 125.676C78.0121 116.858 79.3292 106.4 75.9188 98C74.2598 98 75.354 114.129 75.354 114.129V134.485C75.3857 149.773 84.9351 172.655 106.108 181.393C111.286 183.53 123.015 187 132 187C140.985 187 152.714 183.86 157.892 181.723C179.065 172.986 188.614 149.773 188.646 134.485V114.129C188.646 114.129 189.74 98 188.081 98Z" fill="#331B0C"/>
<path d="M280 72H16V316H280V72Z" fill="#4A312C"/>
</g>
<mask id="mask9" mask-type="alpha" maskUnits="userSpaceOnUse" x="70" y="21" width="125" height="86">
<path fill-rule="evenodd" clip-rule="evenodd" d="M182.68 45.9488C188.086 40.9986 190.851 51.5341 187.781 45.0219C184.013 37.0264 182 36.6293 171.5 30.1293C163.07 24.911 154.515 23.3879 146.95 21.7817C139.692 20.2407 131.502 22.2281 124 21.7817C108.5 24.5 103.5 25 92.6031 30.1293C91.0004 31.8872 89.7089 33.8972 88.4883 35.9344C87.5115 37.5644 86.4105 39.3134 85.995 41.1922C85.7974 42.0856 83.0959 44.2899 82.651 45.0219C82.1697 45.8123 83.651 46.5731 81 47.5C79.4333 48.6887 79.7268 49.654 78.4714 51.1711C75.8053 54.3927 74.3377 57.7577 73.1035 61.7428C69.0005 74.9878 68.6528 90.7413 73.9569 103.747C74.6639 105.481 76.8551 109.099 78.1432 105.385C78.3977 104.651 77.8087 102.191 77.81 101.45C77.8146 98.7301 79.3161 80.7214 85.8571 70.633C87.9862 67.3492 97.8299 55.0522 99.8405 54.9536C100.906 56.6464 115.717 50.5015 135 61.7428C147.5 53.6964 156 54.9536 165 54.9536C171.5 59 177.513 71.284 179.336 74.6922C184.603 84.5377 185.771 104.996 187.781 104.957C189.791 104.919 191.234 99.7198 191.648 98.7271C194.72 91.3517 195.243 82.0948 194.915 74.1684C194.488 63.9664 190.277 52.942 182.68 45.9488Z" fill="white"/>
</mask>
<g mask="url(#mask9)">
<path fill-rule="evenodd" clip-rule="evenodd" d="M182.68 38.9488C188.086 33.9986 189.387 23.9615 186.318 17.4493C182.549 9.45385 174.901 8.45218 167.572 11.9687C160.664 15.2836 154.515 16.3879 146.95 14.7817C139.692 13.2407 132.806 10.5226 125.303 10.0762C112.978 9.34292 101.003 13.9146 92.6031 23.1293C91.0004 24.8872 89.7089 26.8972 88.4883 28.9344C87.5115 30.5644 86.4105 32.3134 85.995 34.1922C85.7974 35.0856 86.1653 37.2899 85.7204 38.0219C85.2391 38.8123 83.4245 39.5373 82.651 40.1239C81.0843 41.3125 79.7268 42.654 78.4714 44.1711C75.8053 47.3927 74.3377 50.7577 73.1035 54.7428C69.0005 67.9878 68.6528 83.7413 73.9569 96.7468C74.6639 98.4811 76.8551 102.099 78.1432 98.3848C78.3977 97.6508 77.8087 95.1908 77.81 94.4502C77.8146 91.7301 79.3161 73.7214 85.8571 63.633C87.9862 60.3492 97.8299 48.0522 99.8405 47.9536C100.906 49.6464 116 50.4681 139.783 59.1949C146.95 54.7428 162.183 52.9341 164.521 50.4681C165.549 56.0009 177.513 64.284 179.336 67.6922C184.603 77.5377 185.771 97.9957 187.781 97.9573C189.791 97.919 191.234 92.7198 191.648 91.7271C194.72 84.3517 195.243 75.0948 194.915 67.1684C194.488 56.9664 190.277 45.9419 182.68 38.9488Z" fill="#28354B"/>
<path d="M263 0H-1V280H263V0Z" fill="#4A312C"/>
</g>
</g>
</g>
</svg>
