<svg width="60" height="60" viewBox="0 0 60 60" fill="none" xmlns="http://www.w3.org/2000/svg">
<path d="M14.1642 51.2916V55.298H11.9498V44.8556H14.9925C16.4109 44.8556 17.4609 45.1139 18.142 45.6305C18.8231 46.1475 19.1634 46.9317 19.1634 47.9836C19.1634 48.5981 18.9942 49.1447 18.6558 49.6228C18.3178 50.1014 17.8392 50.4769 17.22 50.7483L20.2912 55.2975H17.834L15.3417 51.2911H14.1642V51.2916ZM14.1642 49.4916H14.8786C15.578 49.4916 16.095 49.3744 16.4283 49.1414C16.7611 48.908 16.928 48.5414 16.928 48.0417C16.928 47.5463 16.7578 47.1942 16.4175 46.9847C16.0772 46.7752 15.5498 46.6702 14.8355 46.6702H14.1642V49.4916V49.4916ZM27.0914 55.298L26.7984 54.2766H26.684C26.4506 54.6483 26.1192 54.9347 25.6912 55.1372C25.2623 55.3397 24.7739 55.4405 24.2269 55.4405C23.2884 55.4405 22.582 55.1897 22.1053 54.6872C21.629 54.1847 21.3909 53.4624 21.3909 52.5197V47.3128H23.5697V51.9769C23.5697 52.553 23.6719 52.9852 23.8772 53.2734C24.0815 53.5617 24.4073 53.7052 24.855 53.7052C25.4648 53.7052 25.905 53.5013 26.1764 53.0949C26.4478 52.6875 26.5837 52.013 26.5837 51.0703V47.3133H28.762V55.2984H27.0914V55.298ZM35.4905 47.1624C36.4331 47.1624 37.1714 47.5308 37.7053 48.2663C38.2383 49.0017 38.505 50.01 38.505 51.2911C38.505 52.6097 38.2298 53.6311 37.6805 54.3544C37.1306 55.0786 36.3815 55.44 35.4337 55.44C34.4962 55.44 33.7603 55.0992 33.2269 54.4181H33.0769L32.7131 55.297H31.0486V44.1844H33.2269V46.77C33.2269 47.0986 33.1978 47.6245 33.1406 48.3488H33.2269C33.7359 47.5584 34.4911 47.1624 35.4905 47.1624V47.1624ZM34.7906 48.9056C34.253 48.9056 33.8601 49.0711 33.6126 49.402C33.3651 49.7334 33.2362 50.2795 33.2269 51.0417V51.277C33.2269 52.1344 33.3539 52.7484 33.6084 53.1202C33.8634 53.4914 34.267 53.677 34.8192 53.677C35.2669 53.677 35.6222 53.4708 35.887 53.0592C36.1514 52.6477 36.2836 52.0486 36.2836 51.263C36.2836 50.4774 36.1495 49.8877 35.8833 49.4949C35.617 49.102 35.2528 48.9056 34.7906 48.9056ZM39.0192 47.3128H41.4042L42.9112 51.8053C43.0401 52.1958 43.1283 52.6575 43.1756 53.1909H43.2187C43.2708 52.7006 43.3729 52.2384 43.5253 51.8053L45.0037 47.3128H47.3395L43.9612 56.3194C43.6514 57.1524 43.2103 57.7763 42.6365 58.1906C42.0623 58.605 41.3925 58.8117 40.6256 58.8117C40.2492 58.8117 39.8803 58.7714 39.5189 58.6903V56.962C39.7805 57.0234 40.0659 57.0544 40.3758 57.0544C40.7611 57.0544 41.0981 56.9367 41.3864 56.7009C41.6747 56.4656 41.8997 56.1099 42.0614 55.6336L42.1898 55.2403L39.0192 47.3128Z" fill="white"/>
<path d="M41.0269 27.547L18.1116 41.1539L47.7834 39.1411L50.0686 9.22171L41.0269 27.547Z" fill="url(#paint0_linear)"/>
<path d="M47.8317 39.1205L45.2813 21.518L38.3353 30.6914L47.8317 39.1205Z" fill="url(#paint1_linear)"/>
<path d="M47.866 39.1205L29.1825 37.6537L18.2114 41.1155L47.866 39.1205Z" fill="url(#paint2_linear)"/>
<path d="M18.2372 41.1197L22.9045 25.8291L12.6342 28.0256L18.2372 41.1197Z" fill="url(#paint3_linear)"/>
<path d="M38.333 30.7416L34.0383 13.9195L21.7481 25.44L38.333 30.7416Z" fill="url(#paint4_linear)"/>
<path d="M49.0941 14.1567L37.4761 4.66782L34.2413 15.127L49.0941 14.1567Z" fill="url(#paint5_linear)"/>
<path d="M43.6603 1.28485L36.8278 5.0611L32.5167 1.23422L43.6603 1.28485Z" fill="url(#paint6_linear)"/>
<path d="M9.93188 33.1547L12.7945 27.9342L10.4784 21.7153L9.93188 33.1547Z" fill="url(#paint7_linear)"/>
<path d="M10.3247 21.518L12.6544 28.1264L22.7771 25.8553L34.3341 15.1148L37.5956 4.75547L32.4605 1.12875L23.7291 4.39641C20.9785 6.95485 15.6403 12.0173 15.4477 12.1125C15.2574 12.21 11.9231 18.5123 10.3247 21.518V21.518Z" fill="white"/>
<path d="M18.5048 9.64734C24.4668 3.73593 32.1525 0.243743 35.1018 3.21984C38.0498 6.19546 34.9237 13.4273 28.9617 19.3364C23.0001 25.2459 15.4092 28.9308 12.4622 25.9547C9.51185 22.9809 12.5433 15.5564 18.5048 9.64734V9.64734Z" fill="url(#paint8_linear)"/>
<path d="M18.2372 41.1136L22.868 25.7742L38.2481 30.7153C32.6869 35.9302 26.5022 40.3378 18.2372 41.1136V41.1136Z" fill="url(#paint9_linear)"/>
<path d="M34.3542 15.0848L38.3025 30.7237C42.9478 25.8398 47.1169 20.5889 49.1583 14.0944L34.3542 15.0848V15.0848Z" fill="url(#paint10_linear)"/>
<path d="M49.118 14.1731C50.6981 9.40405 51.0623 2.56312 43.612 1.29327L37.4981 4.67015L49.118 14.1731V14.1731Z" fill="url(#paint11_linear)"/>
<path d="M9.93188 33.0858C10.1508 40.9556 15.8292 41.0733 18.248 41.1427L12.6605 28.0941L9.93188 33.0858V33.0858Z" fill="#9E1209"/>
<path d="M34.3767 15.1087C37.9462 17.3025 45.1392 21.7087 45.285 21.7898C45.5119 21.9173 48.3867 16.942 49.0387 14.1305L34.3767 15.1087Z" fill="url(#paint12_radial)"/>
<path d="M22.8619 25.7747L29.0527 37.7184C32.7136 35.7333 35.5795 33.3145 38.2055 30.7238L22.8619 25.7747Z" fill="url(#paint13_radial)"/>
<path d="M12.6361 28.1105L11.7586 38.5552C13.4142 40.8159 15.6909 41.0119 18.0797 40.8361C16.3514 36.5353 12.8995 27.9356 12.6361 28.1105V28.1105Z" fill="url(#paint14_linear)"/>
<path d="M37.462 4.69687L49.7606 6.42328C49.1039 3.64125 47.0883 1.84687 43.6528 1.28531L37.462 4.69687V4.69687Z" fill="url(#paint15_linear)"/>
<defs>
<linearGradient id="paint0_linear" x1="45.1955" y1="44.7942" x2="36.7285" y2="29.8448" gradientUnits="userSpaceOnUse">
<stop stop-color="#FB7655"/>
<stop offset="0.41" stop-color="#E42B1E"/>
<stop offset="0.99" stop-color="#990000"/>
<stop offset="1" stop-color="#990000"/>
</linearGradient>
<linearGradient id="paint1_linear" x1="49.4124" y1="32.2364" x2="38.5003" y2="24.9141" gradientUnits="userSpaceOnUse">
<stop stop-color="#871101"/>
<stop offset="0.99" stop-color="#911209"/>
<stop offset="1" stop-color="#911209"/>
</linearGradient>
<linearGradient id="paint2_linear" x1="40.6814" y1="45.2475" x2="29.7694" y2="37.9251" gradientUnits="userSpaceOnUse">
<stop stop-color="#871101"/>
<stop offset="0.99" stop-color="#911209"/>
<stop offset="1" stop-color="#911209"/>
</linearGradient>
<linearGradient id="paint3_linear" x1="17.7708" y1="26.9344" x2="19.4625" y2="37.9284" gradientUnits="userSpaceOnUse">
<stop stop-color="white"/>
<stop offset="0.23" stop-color="#E57252"/>
<stop offset="0.46" stop-color="#DE3B20"/>
<stop offset="0.99" stop-color="#A60003"/>
<stop offset="1" stop-color="#A60003"/>
</linearGradient>
<linearGradient id="paint4_linear" x1="29.4061" y1="16.6692" x2="30.0295" y2="27.8897" gradientUnits="userSpaceOnUse">
<stop stop-color="white"/>
<stop offset="0.23" stop-color="#E4714E"/>
<stop offset="0.56" stop-color="#BE1A0D"/>
<stop offset="0.99" stop-color="#A80D00"/>
<stop offset="1" stop-color="#A80D00"/>
</linearGradient>
<linearGradient id="paint5_linear" x1="39.7317" y1="6.2986" x2="41.5978" y2="14.3405" gradientUnits="userSpaceOnUse">
<stop stop-color="white"/>
<stop offset="0.18" stop-color="#E46342"/>
<stop offset="0.4" stop-color="#C82410"/>
<stop offset="0.99" stop-color="#A80D00"/>
<stop offset="1" stop-color="#A80D00"/>
</linearGradient>
<linearGradient id="paint6_linear" x1="34.0336" y1="3.46688" x2="42.0741" y2="-0.55312" gradientUnits="userSpaceOnUse">
<stop stop-color="white"/>
<stop offset="0.54" stop-color="#C81F11"/>
<stop offset="0.99" stop-color="#BF0905"/>
<stop offset="1" stop-color="#BF0905"/>
</linearGradient>
<linearGradient id="paint7_linear" x1="10.7227" y1="24.1322" x2="11.3845" y2="30.7584" gradientUnits="userSpaceOnUse">
<stop stop-color="white"/>
<stop offset="0.31" stop-color="#DE4024"/>
<stop offset="0.99" stop-color="#BF190B"/>
<stop offset="1" stop-color="#BF190B"/>
</linearGradient>
<linearGradient id="paint8_linear" x1="6.17294" y1="32.5486" x2="37.2825" y2="0.559675" gradientUnits="userSpaceOnUse">
<stop stop-color="#BD0012"/>
<stop offset="0.07" stop-color="white"/>
<stop offset="0.17" stop-color="white"/>
<stop offset="0.27" stop-color="#C82F1C"/>
<stop offset="0.33" stop-color="#820C01"/>
<stop offset="0.46" stop-color="#A31601"/>
<stop offset="0.72" stop-color="#B31301"/>
<stop offset="0.99" stop-color="#E82609"/>
<stop offset="1" stop-color="#E82609"/>
</linearGradient>
<linearGradient id="paint9_linear" x1="30.0023" y1="35.7764" x2="20.6316" y2="33.4636" gradientUnits="userSpaceOnUse">
<stop stop-color="#8C0C01"/>
<stop offset="0.54" stop-color="#990C00"/>
<stop offset="0.99" stop-color="#A80D0E"/>
<stop offset="1" stop-color="#A80D0E"/>
</linearGradient>
<linearGradient id="paint10_linear" x1="46.0964" y1="24.5297" x2="37.7719" y2="17.069" gradientUnits="userSpaceOnUse">
<stop stop-color="#7E110B"/>
<stop offset="0.99" stop-color="#9E0C00"/>
<stop offset="1" stop-color="#9E0C00"/>
</linearGradient>
<linearGradient id="paint11_linear" x1="49.155" y1="10.8403" x2="45.0084" y2="6.40734" gradientUnits="userSpaceOnUse">
<stop stop-color="#79130D"/>
<stop offset="0.99" stop-color="#9E120B"/>
<stop offset="1" stop-color="#9E120B"/>
</linearGradient>
<radialGradient id="paint12_radial" cx="0" cy="0" r="1" gradientUnits="userSpaceOnUse" gradientTransform="translate(39.0689 17.212) scale(10.2009)">
<stop stop-color="#A80D00"/>
<stop offset="0.99" stop-color="#7E0E08"/>
<stop offset="1" stop-color="#7E0E08"/>
</radialGradient>
<radialGradient id="paint13_radial" cx="0" cy="0" r="1" gradientUnits="userSpaceOnUse" gradientTransform="translate(24.9408 30.6553) scale(13.5619)">
<stop stop-color="#A30C00"/>
<stop offset="0.99" stop-color="#800E08"/>
<stop offset="1" stop-color="#800E08"/>
</radialGradient>
<linearGradient id="paint14_linear" x1="15.3347" y1="41.1052" x2="11.9555" y2="29.6409" gradientUnits="userSpaceOnUse">
<stop stop-color="#8B2114"/>
<stop offset="0.43" stop-color="#9E100A"/>
<stop offset="0.99" stop-color="#B3100C"/>
<stop offset="1" stop-color="#B3100C"/>
</linearGradient>
<linearGradient id="paint15_linear" x1="41.2584" y1="3.11437" x2="48.8344" y2="6.45843" gradientUnits="userSpaceOnUse">
<stop stop-color="#B31000"/>
<stop offset="0.44" stop-color="#910F08"/>
<stop offset="0.99" stop-color="#791C12"/>
<stop offset="1" stop-color="#791C12"/>
</linearGradient>
</defs>
</svg>
