<svg width="484" height="491" viewBox="0 0 484 491" fill="none" xmlns="http://www.w3.org/2000/svg">
<g filter="url(#filter0_i)">
<ellipse cx="242" cy="245.5" rx="242" ry="245.5" fill="#003F63"/>
</g>
<path d="M479 245.5C479 378.392 372.824 486 242 486C111.176 486 5 378.392 5 245.5C5 112.608 111.176 5 242 5C372.824 5 479 112.608 479 245.5Z" stroke="black" stroke-width="10"/>
<path d="M101 404V81L241 218.5L276 186C286.5 191.5 290.5 194.5 297 205L241 264L131 156V329L141 317V179.5L172 209.5V329L101 404Z" fill="#F8D900"/>
<path d="M257.5 145H179L207.5 173.5C227 173.318 243 173.5 257.5 173.318C332.164 188.711 324.928 280.163 278.5 300L384.5 407.5V75.5L304 154.5C315.283 160.851 320.921 165.192 329 175L354.5 150.5V332L323.5 300C354 273 365 162 257.5 145Z" fill="#F8D900"/>
<path d="M101 404V81L241 218.5L276 186C286.5 191.5 290.5 194.5 297 205L241 264L131 156V329L141 317V179.5L172 209.5V329L101 404Z" stroke="black" stroke-linecap="round" stroke-linejoin="round"/>
<path d="M257.5 145H179L207.5 173.5C227 173.318 243 173.5 257.5 173.318C332.164 188.711 324.928 280.163 278.5 300L384.5 407.5V75.5L304 154.5C315.283 160.851 320.921 165.192 329 175L354.5 150.5V332L323.5 300C354 273 365 162 257.5 145Z" stroke="black" stroke-linecap="round" stroke-linejoin="round"/>
<rect x="220" y="382" width="43" height="43" rx="8" fill="#3490DE"/>
<circle cx="173" cy="377" r="8" stroke="#3490DE" stroke-width="2"/>
<circle cx="180" cy="430" r="8" stroke="#3490DE" stroke-width="2"/>
<circle cx="209" cy="453" r="8" stroke="#3490DE" stroke-width="2"/>
<circle cx="246" cy="450" r="8" stroke="#3490DE" stroke-width="2"/>
<path d="M251 359H274M279 350V359H274M274 359V371" stroke="#3490DE" stroke-width="2" stroke-linecap="round" stroke-linejoin="round"/>
<circle cx="210" cy="377" r="8" fill="#3490DE"/>
<circle cx="209" cy="404" r="8" fill="#3490DE"/>
<circle cx="209" cy="430" r="8" fill="#3490DE"/>
<circle cx="274" cy="430" r="8" fill="#3490DE"/>
<path d="M182 377H202" stroke="#3490DE" stroke-width="2" stroke-linecap="round" stroke-linejoin="round"/>
<circle cx="243" cy="359" r="8" stroke="#3490DE" stroke-width="2"/>
<circle cx="279" cy="342" r="8" stroke="#3490DE" stroke-width="2"/>
<circle cx="274" cy="377" r="8" fill="#3490DE"/>
<circle cx="274" cy="404" r="8" fill="#3490DE"/>
<circle cx="298" cy="404" r="8" stroke="#3490DE" stroke-width="2"/>
<path d="M281 404.5H290M274 436V450H254M209 445V436M202.5 404.5H180V422" stroke="#3490DE" stroke-width="2" stroke-linecap="round" stroke-linejoin="round"/>
<defs>
<filter id="filter0_i" x="0" y="0" width="484" height="541" filterUnits="userSpaceOnUse" color-interpolation-filters="sRGB">
<feFlood flood-opacity="0" result="BackgroundImageFix"/>
<feBlend mode="normal" in="SourceGraphic" in2="BackgroundImageFix" result="shape"/>
<feColorMatrix in="SourceAlpha" type="matrix" values="0 0 0 0 0 0 0 0 0 0 0 0 0 0 0 0 0 0 127 0" result="hardAlpha"/>
<feMorphology radius="50" operator="erode" in="SourceAlpha" result="effect1_innerShadow"/>
<feOffset dy="50"/>
<feGaussianBlur stdDeviation="15"/>
<feComposite in2="hardAlpha" operator="arithmetic" k2="-1" k3="1"/>
<feColorMatrix type="matrix" values="0 0 0 0 0 0 0 0 0 0 0 0 0 0 0 0 0 0 0.75 0"/>
<feBlend mode="normal" in2="shape" result="effect1_innerShadow"/>
</filter>
</defs>
</svg>
